<mxfile host="app.diagrams.net" modified="2022-07-20T17:33:17.378Z" agent="5.0 (Windows NT 10.0; Win64; x64) AppleWebKit/537.36 (KHTML, like Gecko) Chrome/103.0.0.0 Safari/537.36" etag="EbeXJ6fpWF30nHfWMkgu" version="20.1.3" type="github">
  <diagram id="CLZ_mUbh_lc97_RH1fOl" name="Page-1">
    <mxGraphModel dx="1695" dy="450" grid="1" gridSize="10" guides="1" tooltips="1" connect="1" arrows="1" fold="1" page="1" pageScale="1" pageWidth="827" pageHeight="1169" math="0" shadow="0">
      <root>
        <mxCell id="0" />
        <mxCell id="1" parent="0" />
        <mxCell id="BffiYCmTZE-S72Ja-R60-3" value="" style="edgeStyle=orthogonalEdgeStyle;rounded=0;orthogonalLoop=1;jettySize=auto;html=1;" edge="1" parent="1" source="ORPVwj0204Dmcl4_nhYg-1" target="BffiYCmTZE-S72Ja-R60-1">
          <mxGeometry relative="1" as="geometry" />
        </mxCell>
        <mxCell id="ORPVwj0204Dmcl4_nhYg-1" value="&lt;font style=&quot;font-size: 14px;&quot;&gt;&lt;b&gt;Início&lt;/b&gt;&lt;/font&gt;" style="ellipse;whiteSpace=wrap;html=1;" parent="1" vertex="1">
          <mxGeometry x="5" y="30" width="120" height="80" as="geometry" />
        </mxCell>
        <mxCell id="BffiYCmTZE-S72Ja-R60-11" style="edgeStyle=orthogonalEdgeStyle;rounded=0;orthogonalLoop=1;jettySize=auto;html=1;exitX=0.5;exitY=1;exitDx=0;exitDy=0;fontSize=11;" edge="1" parent="1" source="jVJpN_7jHwU9q-nAfbNz-1" target="jVJpN_7jHwU9q-nAfbNz-3">
          <mxGeometry relative="1" as="geometry" />
        </mxCell>
        <mxCell id="jVJpN_7jHwU9q-nAfbNz-1" value="&lt;br&gt;&lt;b&gt;Data do Evento&lt;/b&gt;" style="shape=manualInput;whiteSpace=wrap;html=1;" parent="1" vertex="1">
          <mxGeometry x="310" y="40" width="82.5" height="60" as="geometry" />
        </mxCell>
        <mxCell id="BffiYCmTZE-S72Ja-R60-12" style="edgeStyle=orthogonalEdgeStyle;rounded=0;orthogonalLoop=1;jettySize=auto;html=1;exitX=1;exitY=0.5;exitDx=0;exitDy=0;fontSize=11;" edge="1" parent="1" source="jVJpN_7jHwU9q-nAfbNz-3" target="jVJpN_7jHwU9q-nAfbNz-5">
          <mxGeometry relative="1" as="geometry" />
        </mxCell>
        <mxCell id="BffiYCmTZE-S72Ja-R60-22" style="edgeStyle=orthogonalEdgeStyle;rounded=0;orthogonalLoop=1;jettySize=auto;html=1;exitX=0.5;exitY=1;exitDx=0;exitDy=0;fontSize=11;" edge="1" parent="1" source="jVJpN_7jHwU9q-nAfbNz-3" target="BffiYCmTZE-S72Ja-R60-21">
          <mxGeometry relative="1" as="geometry" />
        </mxCell>
        <mxCell id="jVJpN_7jHwU9q-nAfbNz-3" value="Data Evento&lt;br&gt;&amp;gt;&lt;br&gt;Data Atual" style="rhombus;whiteSpace=wrap;html=1;" parent="1" vertex="1">
          <mxGeometry y="150" width="120" height="110" as="geometry" />
        </mxCell>
        <mxCell id="BffiYCmTZE-S72Ja-R60-13" value="" style="edgeStyle=orthogonalEdgeStyle;rounded=0;orthogonalLoop=1;jettySize=auto;html=1;fontSize=11;" edge="1" parent="1" source="jVJpN_7jHwU9q-nAfbNz-5" target="BffiYCmTZE-S72Ja-R60-10">
          <mxGeometry relative="1" as="geometry" />
        </mxCell>
        <mxCell id="jVJpN_7jHwU9q-nAfbNz-5" value="&lt;div style=&quot;&quot;&gt;&lt;span style=&quot;font-size: 11px; background-color: initial;&quot;&gt;Data inválida:&lt;/span&gt;&lt;/div&gt;&lt;div style=&quot;font-size: 11px;&quot;&gt;&lt;span style=&quot;background-color: initial;&quot;&gt;&lt;font style=&quot;font-size: 11px;&quot;&gt;Cadastro não permitido.&lt;/font&gt;&lt;/span&gt;&lt;/div&gt;" style="shape=display;whiteSpace=wrap;html=1;align=center;size=0.21428571428571427;rotation=0;" parent="1" vertex="1">
          <mxGeometry x="157.5" y="177.5" width="140" height="55" as="geometry" />
        </mxCell>
        <mxCell id="BffiYCmTZE-S72Ja-R60-16" value="" style="edgeStyle=orthogonalEdgeStyle;rounded=0;orthogonalLoop=1;jettySize=auto;html=1;fontSize=11;" edge="1" parent="1" source="jVJpN_7jHwU9q-nAfbNz-7" target="BffiYCmTZE-S72Ja-R60-15">
          <mxGeometry relative="1" as="geometry" />
        </mxCell>
        <mxCell id="jVJpN_7jHwU9q-nAfbNz-7" value="&lt;br&gt;&lt;br&gt;Resposta" style="shape=manualInput;whiteSpace=wrap;html=1;fontSize=11;" parent="1" vertex="1">
          <mxGeometry x="505" y="160" width="80" height="65" as="geometry" />
        </mxCell>
        <mxCell id="jVJpN_7jHwU9q-nAfbNz-14" value="&lt;span style=&quot;font-size: 15px;&quot;&gt;&lt;b&gt;NÃO&lt;/b&gt;&lt;/span&gt;" style="text;html=1;align=center;verticalAlign=middle;resizable=0;points=[];autosize=1;strokeColor=none;fillColor=none;fontSize=11;" parent="1" vertex="1">
          <mxGeometry x="111.25" y="170" width="60" height="30" as="geometry" />
        </mxCell>
        <mxCell id="jVJpN_7jHwU9q-nAfbNz-19" value="" style="edgeStyle=orthogonalEdgeStyle;rounded=0;orthogonalLoop=1;jettySize=auto;html=1;fontSize=15;" parent="1" source="jVJpN_7jHwU9q-nAfbNz-16" target="jVJpN_7jHwU9q-nAfbNz-18" edge="1">
          <mxGeometry relative="1" as="geometry" />
        </mxCell>
        <mxCell id="jVJpN_7jHwU9q-nAfbNz-16" value="Idade" style="shape=manualInput;whiteSpace=wrap;html=1;" parent="1" vertex="1">
          <mxGeometry x="1.25" y="370" width="110" height="80" as="geometry" />
        </mxCell>
        <mxCell id="BffiYCmTZE-S72Ja-R60-24" style="edgeStyle=orthogonalEdgeStyle;rounded=0;orthogonalLoop=1;jettySize=auto;html=1;fontSize=11;" edge="1" parent="1" source="jVJpN_7jHwU9q-nAfbNz-18" target="jVJpN_7jHwU9q-nAfbNz-20">
          <mxGeometry relative="1" as="geometry" />
        </mxCell>
        <mxCell id="BffiYCmTZE-S72Ja-R60-47" value="" style="edgeStyle=orthogonalEdgeStyle;rounded=0;orthogonalLoop=1;jettySize=auto;html=1;fontSize=11;" edge="1" parent="1" source="jVJpN_7jHwU9q-nAfbNz-18" target="BffiYCmTZE-S72Ja-R60-46">
          <mxGeometry relative="1" as="geometry" />
        </mxCell>
        <mxCell id="jVJpN_7jHwU9q-nAfbNz-18" value="Idade &amp;gt;= 18" style="rhombus;whiteSpace=wrap;html=1;" parent="1" vertex="1">
          <mxGeometry x="1.25" y="485" width="98.75" height="100" as="geometry" />
        </mxCell>
        <mxCell id="BffiYCmTZE-S72Ja-R60-40" value="" style="edgeStyle=orthogonalEdgeStyle;rounded=0;orthogonalLoop=1;jettySize=auto;html=1;fontSize=11;" edge="1" parent="1" source="jVJpN_7jHwU9q-nAfbNz-20" target="BffiYCmTZE-S72Ja-R60-39">
          <mxGeometry relative="1" as="geometry" />
        </mxCell>
        <mxCell id="jVJpN_7jHwU9q-nAfbNz-20" value="&lt;font style=&quot;font-size: 13px;&quot;&gt;Cadastro não permitido, idade inválida.&lt;/font&gt;" style="shape=display;whiteSpace=wrap;html=1;fontSize=15;align=center;" parent="1" vertex="1">
          <mxGeometry x="137.5" y="502.5" width="140" height="65" as="geometry" />
        </mxCell>
        <mxCell id="jVJpN_7jHwU9q-nAfbNz-22" value="&lt;span style=&quot;font-size: 15px;&quot;&gt;&lt;b&gt;NÃO&lt;/b&gt;&lt;/span&gt;" style="text;html=1;align=center;verticalAlign=middle;resizable=0;points=[];autosize=1;strokeColor=none;fillColor=none;fontSize=11;" parent="1" vertex="1">
          <mxGeometry x="622.5" y="650" width="60" height="30" as="geometry" />
        </mxCell>
        <mxCell id="BffiYCmTZE-S72Ja-R60-50" value="" style="edgeStyle=orthogonalEdgeStyle;rounded=0;orthogonalLoop=1;jettySize=auto;html=1;fontSize=11;" edge="1" parent="1" source="jVJpN_7jHwU9q-nAfbNz-34" target="BffiYCmTZE-S72Ja-R60-49">
          <mxGeometry relative="1" as="geometry" />
        </mxCell>
        <mxCell id="jVJpN_7jHwU9q-nAfbNz-34" value="Nome" style="shape=manualInput;whiteSpace=wrap;html=1;fontSize=13;" parent="1" vertex="1">
          <mxGeometry x="-3.75" y="680" width="110" height="80" as="geometry" />
        </mxCell>
        <mxCell id="jVJpN_7jHwU9q-nAfbNz-83" value="" style="edgeStyle=orthogonalEdgeStyle;rounded=0;orthogonalLoop=1;jettySize=auto;html=1;fontSize=13;" parent="1" source="jVJpN_7jHwU9q-nAfbNz-36" target="jVJpN_7jHwU9q-nAfbNz-38" edge="1">
          <mxGeometry relative="1" as="geometry" />
        </mxCell>
        <mxCell id="jVJpN_7jHwU9q-nAfbNz-36" value="Resposta" style="shape=manualInput;whiteSpace=wrap;html=1;fontSize=13;" parent="1" vertex="1">
          <mxGeometry x="-3.75" y="875" width="110" height="80" as="geometry" />
        </mxCell>
        <mxCell id="BffiYCmTZE-S72Ja-R60-55" style="edgeStyle=orthogonalEdgeStyle;rounded=0;orthogonalLoop=1;jettySize=auto;html=1;exitX=1;exitY=0.5;exitDx=0;exitDy=0;entryX=0;entryY=0.25;entryDx=0;entryDy=0;fontSize=11;" edge="1" parent="1" source="jVJpN_7jHwU9q-nAfbNz-38" target="jVJpN_7jHwU9q-nAfbNz-81">
          <mxGeometry relative="1" as="geometry" />
        </mxCell>
        <mxCell id="BffiYCmTZE-S72Ja-R60-56" style="edgeStyle=orthogonalEdgeStyle;rounded=0;orthogonalLoop=1;jettySize=auto;html=1;exitX=0.5;exitY=1;exitDx=0;exitDy=0;entryX=0;entryY=0.5;entryDx=0;entryDy=0;fontSize=11;" edge="1" parent="1" source="jVJpN_7jHwU9q-nAfbNz-38" target="jVJpN_7jHwU9q-nAfbNz-40">
          <mxGeometry relative="1" as="geometry" />
        </mxCell>
        <mxCell id="jVJpN_7jHwU9q-nAfbNz-38" value="Participante ou Palestrante" style="rhombus;whiteSpace=wrap;html=1;fontSize=13;" parent="1" vertex="1">
          <mxGeometry x="-15.620000000000001" y="990" width="132.5" height="120" as="geometry" />
        </mxCell>
        <mxCell id="BffiYCmTZE-S72Ja-R60-57" value="" style="edgeStyle=orthogonalEdgeStyle;rounded=0;orthogonalLoop=1;jettySize=auto;html=1;fontSize=11;" edge="1" parent="1" source="jVJpN_7jHwU9q-nAfbNz-40" target="jVJpN_7jHwU9q-nAfbNz-86">
          <mxGeometry relative="1" as="geometry" />
        </mxCell>
        <mxCell id="jVJpN_7jHwU9q-nAfbNz-40" value="Lista de Palestrantes" style="rounded=1;whiteSpace=wrap;html=1;fontSize=13;" parent="1" vertex="1">
          <mxGeometry x="200" y="1070" width="87.5" height="60" as="geometry" />
        </mxCell>
        <mxCell id="jVJpN_7jHwU9q-nAfbNz-63" value="" style="edgeStyle=orthogonalEdgeStyle;rounded=0;orthogonalLoop=1;jettySize=auto;html=1;fontSize=13;startArrow=none;" parent="1" source="BffiYCmTZE-S72Ja-R60-60" target="jVJpN_7jHwU9q-nAfbNz-62" edge="1">
          <mxGeometry relative="1" as="geometry" />
        </mxCell>
        <mxCell id="jVJpN_7jHwU9q-nAfbNz-74" style="edgeStyle=orthogonalEdgeStyle;rounded=0;orthogonalLoop=1;jettySize=auto;html=1;exitX=1;exitY=0.5;exitDx=0;exitDy=0;entryX=0;entryY=0.5;entryDx=0;entryDy=0;entryPerimeter=0;fontSize=13;" parent="1" source="jVJpN_7jHwU9q-nAfbNz-59" target="jVJpN_7jHwU9q-nAfbNz-73" edge="1">
          <mxGeometry relative="1" as="geometry" />
        </mxCell>
        <mxCell id="BffiYCmTZE-S72Ja-R60-62" value="" style="edgeStyle=orthogonalEdgeStyle;rounded=0;orthogonalLoop=1;jettySize=auto;html=1;fontSize=11;" edge="1" parent="1" source="jVJpN_7jHwU9q-nAfbNz-59" target="BffiYCmTZE-S72Ja-R60-60">
          <mxGeometry relative="1" as="geometry" />
        </mxCell>
        <mxCell id="jVJpN_7jHwU9q-nAfbNz-59" value="&lt;br&gt;Lista de Participantes&lt;br&gt;&amp;lt;100" style="rhombus;whiteSpace=wrap;html=1;fontSize=13;rounded=1;" parent="1" vertex="1">
          <mxGeometry x="505" y="930" width="140" height="150" as="geometry" />
        </mxCell>
        <mxCell id="jVJpN_7jHwU9q-nAfbNz-66" value="" style="edgeStyle=orthogonalEdgeStyle;rounded=0;orthogonalLoop=1;jettySize=auto;html=1;fontSize=13;" parent="1" source="jVJpN_7jHwU9q-nAfbNz-62" target="jVJpN_7jHwU9q-nAfbNz-65" edge="1">
          <mxGeometry relative="1" as="geometry" />
        </mxCell>
        <mxCell id="jVJpN_7jHwU9q-nAfbNz-62" value="Resposta" style="shape=manualInput;whiteSpace=wrap;html=1;fontSize=13;" parent="1" vertex="1">
          <mxGeometry x="530" y="737.5" width="90" height="55" as="geometry" />
        </mxCell>
        <mxCell id="jVJpN_7jHwU9q-nAfbNz-94" value="" style="edgeStyle=orthogonalEdgeStyle;rounded=0;orthogonalLoop=1;jettySize=auto;html=1;fontSize=13;" parent="1" source="jVJpN_7jHwU9q-nAfbNz-65" target="jVJpN_7jHwU9q-nAfbNz-93" edge="1">
          <mxGeometry relative="1" as="geometry" />
        </mxCell>
        <mxCell id="BffiYCmTZE-S72Ja-R60-63" style="edgeStyle=orthogonalEdgeStyle;rounded=0;orthogonalLoop=1;jettySize=auto;html=1;exitX=0.5;exitY=0;exitDx=0;exitDy=0;fontSize=11;entryX=0.979;entryY=0.218;entryDx=0;entryDy=0;entryPerimeter=0;" edge="1" parent="1" source="jVJpN_7jHwU9q-nAfbNz-65" target="BffiYCmTZE-S72Ja-R60-21">
          <mxGeometry relative="1" as="geometry">
            <mxPoint x="575" y="264" as="targetPoint" />
            <Array as="points">
              <mxPoint x="575" y="292" />
            </Array>
          </mxGeometry>
        </mxCell>
        <mxCell id="jVJpN_7jHwU9q-nAfbNz-65" value="Sim ou Não" style="rhombus;whiteSpace=wrap;html=1;fontSize=13;" parent="1" vertex="1">
          <mxGeometry x="527.5" y="640" width="95" height="87.5" as="geometry" />
        </mxCell>
        <mxCell id="jVJpN_7jHwU9q-nAfbNz-95" style="edgeStyle=orthogonalEdgeStyle;rounded=0;orthogonalLoop=1;jettySize=auto;html=1;entryX=0.5;entryY=1;entryDx=0;entryDy=0;fontSize=13;" parent="1" source="jVJpN_7jHwU9q-nAfbNz-73" target="jVJpN_7jHwU9q-nAfbNz-93" edge="1">
          <mxGeometry relative="1" as="geometry" />
        </mxCell>
        <mxCell id="jVJpN_7jHwU9q-nAfbNz-73" value="Número de pessoas excedeu o limite.&lt;br&gt;Cadastro não permitido" style="shape=display;whiteSpace=wrap;html=1;fontSize=13;" parent="1" vertex="1">
          <mxGeometry x="657" y="952.5" width="170" height="95" as="geometry" />
        </mxCell>
        <mxCell id="jVJpN_7jHwU9q-nAfbNz-75" style="edgeStyle=orthogonalEdgeStyle;rounded=0;orthogonalLoop=1;jettySize=auto;html=1;exitX=0.5;exitY=1;exitDx=0;exitDy=0;fontSize=13;" parent="1" edge="1">
          <mxGeometry relative="1" as="geometry">
            <mxPoint x="237.5" y="920" as="sourcePoint" />
            <mxPoint x="237.5" y="920" as="targetPoint" />
          </mxGeometry>
        </mxCell>
        <mxCell id="jVJpN_7jHwU9q-nAfbNz-107" value="" style="edgeStyle=orthogonalEdgeStyle;rounded=0;orthogonalLoop=1;jettySize=auto;html=1;fontSize=13;" parent="1" source="jVJpN_7jHwU9q-nAfbNz-81" target="jVJpN_7jHwU9q-nAfbNz-90" edge="1">
          <mxGeometry relative="1" as="geometry" />
        </mxCell>
        <mxCell id="jVJpN_7jHwU9q-nAfbNz-81" value="Lista de Participantes" style="rounded=1;whiteSpace=wrap;html=1;fontSize=13;" parent="1" vertex="1">
          <mxGeometry x="200" y="975" width="87.5" height="60" as="geometry" />
        </mxCell>
        <mxCell id="BffiYCmTZE-S72Ja-R60-59" style="edgeStyle=orthogonalEdgeStyle;rounded=0;orthogonalLoop=1;jettySize=auto;html=1;exitX=1;exitY=0.5;exitDx=0;exitDy=0;exitPerimeter=0;entryX=0.5;entryY=1;entryDx=0;entryDy=0;fontSize=11;" edge="1" parent="1" source="jVJpN_7jHwU9q-nAfbNz-86" target="jVJpN_7jHwU9q-nAfbNz-59">
          <mxGeometry relative="1" as="geometry" />
        </mxCell>
        <mxCell id="jVJpN_7jHwU9q-nAfbNz-86" value="Lista de Palestrantes e Participantes" style="shape=display;whiteSpace=wrap;html=1;fontSize=13;" parent="1" vertex="1">
          <mxGeometry x="325" y="1065" width="130" height="70" as="geometry" />
        </mxCell>
        <mxCell id="jVJpN_7jHwU9q-nAfbNz-92" value="" style="edgeStyle=orthogonalEdgeStyle;rounded=0;orthogonalLoop=1;jettySize=auto;html=1;fontSize=13;" parent="1" source="jVJpN_7jHwU9q-nAfbNz-90" target="jVJpN_7jHwU9q-nAfbNz-59" edge="1">
          <mxGeometry relative="1" as="geometry" />
        </mxCell>
        <mxCell id="jVJpN_7jHwU9q-nAfbNz-90" value="Lista de Palestrantes e Participantes" style="shape=display;whiteSpace=wrap;html=1;fontSize=13;" parent="1" vertex="1">
          <mxGeometry x="330" y="970" width="120" height="70" as="geometry" />
        </mxCell>
        <mxCell id="jVJpN_7jHwU9q-nAfbNz-93" value="&lt;b&gt;FIM&lt;/b&gt;" style="ellipse;whiteSpace=wrap;html=1;fontSize=13;" parent="1" vertex="1">
          <mxGeometry x="682" y="653.75" width="120" height="60" as="geometry" />
        </mxCell>
        <mxCell id="jVJpN_7jHwU9q-nAfbNz-98" value="&lt;b&gt;&lt;font style=&quot;font-size: 15px;&quot;&gt;SIM&lt;/font&gt;&lt;/b&gt;" style="text;html=1;align=center;verticalAlign=middle;resizable=0;points=[];autosize=1;strokeColor=none;fillColor=none;fontSize=11;" parent="1" vertex="1">
          <mxGeometry x="227.5" y="330" width="50" height="30" as="geometry" />
        </mxCell>
        <mxCell id="jVJpN_7jHwU9q-nAfbNz-100" value="&lt;b&gt;&lt;font style=&quot;font-size: 15px;&quot;&gt;SIM&lt;/font&gt;&lt;/b&gt;" style="text;html=1;align=center;verticalAlign=middle;resizable=0;points=[];autosize=1;strokeColor=none;fillColor=none;fontSize=11;" parent="1" vertex="1">
          <mxGeometry x="520" y="567.5" width="50" height="30" as="geometry" />
        </mxCell>
        <mxCell id="jVJpN_7jHwU9q-nAfbNz-101" value="&lt;span style=&quot;font-size: 15px;&quot;&gt;&lt;b&gt;NÃO&lt;/b&gt;&lt;/span&gt;" style="text;html=1;align=center;verticalAlign=middle;resizable=0;points=[];autosize=1;strokeColor=none;fillColor=none;fontSize=11;" parent="1" vertex="1">
          <mxGeometry x="85" y="500" width="60" height="30" as="geometry" />
        </mxCell>
        <mxCell id="jVJpN_7jHwU9q-nAfbNz-102" value="&lt;span style=&quot;font-size: 15px;&quot;&gt;&lt;b&gt;Participantes&lt;br&gt;&lt;/b&gt;&lt;/span&gt;" style="text;html=1;align=center;verticalAlign=middle;resizable=0;points=[];autosize=1;strokeColor=none;fillColor=none;fontSize=11;" parent="1" vertex="1">
          <mxGeometry x="70" y="960" width="120" height="30" as="geometry" />
        </mxCell>
        <mxCell id="jVJpN_7jHwU9q-nAfbNz-106" value="&lt;span style=&quot;font-size: 15px;&quot;&gt;&lt;b&gt;Palestrantes&lt;br&gt;&lt;/b&gt;&lt;/span&gt;" style="text;html=1;align=center;verticalAlign=middle;resizable=0;points=[];autosize=1;strokeColor=none;fillColor=none;fontSize=11;" parent="1" vertex="1">
          <mxGeometry x="47.5" y="1100" width="110" height="30" as="geometry" />
        </mxCell>
        <mxCell id="jVJpN_7jHwU9q-nAfbNz-108" value="&lt;b&gt;&lt;font style=&quot;font-size: 15px;&quot;&gt;SIM&lt;/font&gt;&lt;/b&gt;" style="text;html=1;align=center;verticalAlign=middle;resizable=0;points=[];autosize=1;strokeColor=none;fillColor=none;fontSize=11;" parent="1" vertex="1">
          <mxGeometry x="520" y="900" width="50" height="30" as="geometry" />
        </mxCell>
        <mxCell id="jVJpN_7jHwU9q-nAfbNz-109" value="&lt;span style=&quot;font-size: 15px;&quot;&gt;&lt;b&gt;NÃO&lt;/b&gt;&lt;/span&gt;" style="text;html=1;align=center;verticalAlign=middle;resizable=0;points=[];autosize=1;strokeColor=none;fillColor=none;fontSize=11;" parent="1" vertex="1">
          <mxGeometry x="620" y="960" width="60" height="30" as="geometry" />
        </mxCell>
        <mxCell id="BffiYCmTZE-S72Ja-R60-4" value="" style="edgeStyle=orthogonalEdgeStyle;rounded=0;orthogonalLoop=1;jettySize=auto;html=1;" edge="1" parent="1" source="BffiYCmTZE-S72Ja-R60-1" target="jVJpN_7jHwU9q-nAfbNz-1">
          <mxGeometry relative="1" as="geometry" />
        </mxCell>
        <mxCell id="BffiYCmTZE-S72Ja-R60-1" value="&lt;b style=&quot;font-size: 11px;&quot;&gt;Insira a &lt;br style=&quot;font-size: 11px;&quot;&gt;data do evento:&lt;/b&gt;" style="shape=display;whiteSpace=wrap;html=1;align=center;size=0.21428571428571427;fontSize=11;" vertex="1" parent="1">
          <mxGeometry x="157.5" y="42.5" width="100" height="55" as="geometry" />
        </mxCell>
        <mxCell id="BffiYCmTZE-S72Ja-R60-10" value="&lt;div style=&quot;&quot;&gt;&lt;span style=&quot;font-size: 11px;&quot;&gt;Informar nova data?&lt;/span&gt;&lt;/div&gt;&lt;div style=&quot;&quot;&gt;&lt;span style=&quot;font-size: 11px;&quot;&gt;S / N&lt;/span&gt;&lt;/div&gt;" style="shape=display;whiteSpace=wrap;html=1;align=center;size=0.21428571428571427;rotation=0;" vertex="1" parent="1">
          <mxGeometry x="330" y="177.5" width="140" height="55" as="geometry" />
        </mxCell>
        <mxCell id="BffiYCmTZE-S72Ja-R60-17" style="edgeStyle=orthogonalEdgeStyle;rounded=0;orthogonalLoop=1;jettySize=auto;html=1;exitX=0.5;exitY=0;exitDx=0;exitDy=0;entryX=0;entryY=0;entryDx=46.964285714285715;entryDy=0;entryPerimeter=0;fontSize=11;" edge="1" parent="1" source="BffiYCmTZE-S72Ja-R60-15" target="BffiYCmTZE-S72Ja-R60-1">
          <mxGeometry relative="1" as="geometry" />
        </mxCell>
        <mxCell id="BffiYCmTZE-S72Ja-R60-19" style="edgeStyle=orthogonalEdgeStyle;rounded=0;orthogonalLoop=1;jettySize=auto;html=1;exitX=1;exitY=0.5;exitDx=0;exitDy=0;fontSize=11;" edge="1" parent="1" source="BffiYCmTZE-S72Ja-R60-15" target="jVJpN_7jHwU9q-nAfbNz-93">
          <mxGeometry relative="1" as="geometry">
            <mxPoint x="800" y="260" as="targetPoint" />
            <Array as="points">
              <mxPoint x="742" y="100" />
            </Array>
          </mxGeometry>
        </mxCell>
        <mxCell id="BffiYCmTZE-S72Ja-R60-15" value="S&lt;br&gt;ou&amp;nbsp;&lt;br&gt;N" style="rhombus;whiteSpace=wrap;html=1;fontSize=11;" vertex="1" parent="1">
          <mxGeometry x="505" y="60" width="80" height="80" as="geometry" />
        </mxCell>
        <mxCell id="BffiYCmTZE-S72Ja-R60-18" value="&lt;b&gt;&lt;font style=&quot;font-size: 15px;&quot;&gt;SIM&lt;/font&gt;&lt;/b&gt;" style="text;html=1;align=center;verticalAlign=middle;resizable=0;points=[];autosize=1;strokeColor=none;fillColor=none;fontSize=11;" vertex="1" parent="1">
          <mxGeometry x="450" y="20" width="50" height="30" as="geometry" />
        </mxCell>
        <mxCell id="BffiYCmTZE-S72Ja-R60-20" value="&lt;span style=&quot;font-size: 15px;&quot;&gt;&lt;b&gt;NÃO&lt;/b&gt;&lt;/span&gt;" style="text;html=1;align=center;verticalAlign=middle;resizable=0;points=[];autosize=1;strokeColor=none;fillColor=none;fontSize=11;" vertex="1" parent="1">
          <mxGeometry x="622.5" y="70" width="60" height="30" as="geometry" />
        </mxCell>
        <mxCell id="BffiYCmTZE-S72Ja-R60-23" style="edgeStyle=orthogonalEdgeStyle;rounded=0;orthogonalLoop=1;jettySize=auto;html=1;exitX=0;exitY=0;exitDx=71.25;exitDy=55;exitPerimeter=0;fontSize=11;" edge="1" parent="1" source="BffiYCmTZE-S72Ja-R60-21" target="jVJpN_7jHwU9q-nAfbNz-16">
          <mxGeometry relative="1" as="geometry" />
        </mxCell>
        <mxCell id="BffiYCmTZE-S72Ja-R60-21" value="&lt;div style=&quot;&quot;&gt;&lt;span style=&quot;font-size: 11px;&quot;&gt;Digite sua idade&lt;/span&gt;&lt;/div&gt;" style="shape=display;whiteSpace=wrap;html=1;align=center;size=0.21428571428571427;rotation=0;" vertex="1" parent="1">
          <mxGeometry x="-15" y="280" width="140" height="55" as="geometry" />
        </mxCell>
        <mxCell id="BffiYCmTZE-S72Ja-R60-27" value="" style="edgeStyle=orthogonalEdgeStyle;rounded=0;orthogonalLoop=1;jettySize=auto;html=1;fontSize=11;" edge="1" target="BffiYCmTZE-S72Ja-R60-28" parent="1">
          <mxGeometry relative="1" as="geometry">
            <mxPoint x="297.5" y="205" as="sourcePoint" />
          </mxGeometry>
        </mxCell>
        <mxCell id="BffiYCmTZE-S72Ja-R60-43" style="edgeStyle=orthogonalEdgeStyle;rounded=0;orthogonalLoop=1;jettySize=auto;html=1;exitX=1;exitY=0.5;exitDx=0;exitDy=0;exitPerimeter=0;entryX=0;entryY=0.75;entryDx=0;entryDy=0;fontSize=11;" edge="1" parent="1" source="BffiYCmTZE-S72Ja-R60-28" target="jVJpN_7jHwU9q-nAfbNz-7">
          <mxGeometry relative="1" as="geometry" />
        </mxCell>
        <mxCell id="BffiYCmTZE-S72Ja-R60-28" value="&lt;div style=&quot;&quot;&gt;&lt;span style=&quot;font-size: 11px;&quot;&gt;Informar nova data?&lt;/span&gt;&lt;/div&gt;&lt;div style=&quot;&quot;&gt;&lt;span style=&quot;font-size: 11px;&quot;&gt;S / N&lt;/span&gt;&lt;/div&gt;" style="shape=display;whiteSpace=wrap;html=1;align=center;size=0.21428571428571427;rotation=0;" vertex="1" parent="1">
          <mxGeometry x="330" y="177.5" width="140" height="55" as="geometry" />
        </mxCell>
        <mxCell id="BffiYCmTZE-S72Ja-R60-44" value="" style="edgeStyle=orthogonalEdgeStyle;rounded=0;orthogonalLoop=1;jettySize=auto;html=1;fontSize=11;" edge="1" parent="1" source="BffiYCmTZE-S72Ja-R60-33" target="BffiYCmTZE-S72Ja-R60-36">
          <mxGeometry relative="1" as="geometry" />
        </mxCell>
        <mxCell id="BffiYCmTZE-S72Ja-R60-33" value="&lt;br&gt;&lt;br&gt;Resposta" style="shape=manualInput;whiteSpace=wrap;html=1;fontSize=11;" vertex="1" parent="1">
          <mxGeometry x="340" y="420" width="80" height="65" as="geometry" />
        </mxCell>
        <mxCell id="BffiYCmTZE-S72Ja-R60-34" value="" style="edgeStyle=orthogonalEdgeStyle;rounded=0;orthogonalLoop=1;jettySize=auto;html=1;fontSize=11;" edge="1" parent="1" target="BffiYCmTZE-S72Ja-R60-33">
          <mxGeometry relative="1" as="geometry">
            <mxPoint x="445.54" y="527.5" as="sourcePoint" />
          </mxGeometry>
        </mxCell>
        <mxCell id="BffiYCmTZE-S72Ja-R60-45" style="edgeStyle=orthogonalEdgeStyle;rounded=0;orthogonalLoop=1;jettySize=auto;html=1;exitX=0;exitY=0.5;exitDx=0;exitDy=0;fontSize=11;entryX=0.971;entryY=0.8;entryDx=0;entryDy=0;entryPerimeter=0;" edge="1" parent="1" source="BffiYCmTZE-S72Ja-R60-36" target="BffiYCmTZE-S72Ja-R60-21">
          <mxGeometry relative="1" as="geometry">
            <mxPoint x="150" y="320" as="targetPoint" />
          </mxGeometry>
        </mxCell>
        <mxCell id="BffiYCmTZE-S72Ja-R60-65" style="edgeStyle=orthogonalEdgeStyle;rounded=0;orthogonalLoop=1;jettySize=auto;html=1;exitX=1;exitY=0.5;exitDx=0;exitDy=0;fontSize=11;entryX=0.333;entryY=0.054;entryDx=0;entryDy=0;entryPerimeter=0;" edge="1" parent="1" source="BffiYCmTZE-S72Ja-R60-36" target="jVJpN_7jHwU9q-nAfbNz-93">
          <mxGeometry relative="1" as="geometry">
            <mxPoint x="720" y="360" as="targetPoint" />
          </mxGeometry>
        </mxCell>
        <mxCell id="BffiYCmTZE-S72Ja-R60-36" value="S&lt;br&gt;ou&amp;nbsp;&lt;br&gt;N" style="rhombus;whiteSpace=wrap;html=1;fontSize=11;" vertex="1" parent="1">
          <mxGeometry x="340" y="320" width="80" height="80" as="geometry" />
        </mxCell>
        <mxCell id="BffiYCmTZE-S72Ja-R60-39" value="&lt;div style=&quot;&quot;&gt;&lt;span style=&quot;font-size: 11px; background-color: initial;&quot;&gt;Deseja continuar?&lt;/span&gt;&lt;/div&gt;&lt;div style=&quot;&quot;&gt;&lt;span style=&quot;font-size: 11px; background-color: initial;&quot;&gt;S / N&lt;/span&gt;&lt;br&gt;&lt;/div&gt;" style="shape=display;whiteSpace=wrap;html=1;align=center;size=0.21428571428571427;rotation=0;" vertex="1" parent="1">
          <mxGeometry x="310" y="507.5" width="140" height="55" as="geometry" />
        </mxCell>
        <mxCell id="BffiYCmTZE-S72Ja-R60-48" style="edgeStyle=orthogonalEdgeStyle;rounded=0;orthogonalLoop=1;jettySize=auto;html=1;exitX=0;exitY=0;exitDx=59.10714285714286;exitDy=55;exitPerimeter=0;entryX=0.498;entryY=0.15;entryDx=0;entryDy=0;entryPerimeter=0;fontSize=11;" edge="1" parent="1" source="BffiYCmTZE-S72Ja-R60-46" target="jVJpN_7jHwU9q-nAfbNz-34">
          <mxGeometry relative="1" as="geometry" />
        </mxCell>
        <mxCell id="BffiYCmTZE-S72Ja-R60-46" value="&lt;div style=&quot;&quot;&gt;&lt;span style=&quot;font-size: 11px;&quot;&gt;Digite seu nome:&lt;/span&gt;&lt;/div&gt;" style="shape=display;whiteSpace=wrap;html=1;align=center;size=0.21428571428571427;rotation=0;" vertex="1" parent="1">
          <mxGeometry x="-9.37" y="613.75" width="120" height="55" as="geometry" />
        </mxCell>
        <mxCell id="BffiYCmTZE-S72Ja-R60-53" value="" style="edgeStyle=orthogonalEdgeStyle;rounded=0;orthogonalLoop=1;jettySize=auto;html=1;fontSize=11;" edge="1" parent="1" source="BffiYCmTZE-S72Ja-R60-49" target="jVJpN_7jHwU9q-nAfbNz-36">
          <mxGeometry relative="1" as="geometry" />
        </mxCell>
        <mxCell id="BffiYCmTZE-S72Ja-R60-49" value="&lt;div style=&quot;&quot;&gt;&lt;span style=&quot;font-size: 11px;&quot;&gt;Participante ou Palestrante?&lt;/span&gt;&lt;/div&gt;" style="shape=display;whiteSpace=wrap;html=1;align=center;size=0.21428571428571427;rotation=0;" vertex="1" parent="1">
          <mxGeometry x="-9.370000000000001" y="792.5" width="120" height="55" as="geometry" />
        </mxCell>
        <mxCell id="BffiYCmTZE-S72Ja-R60-60" value="Deseja adicionar outra pessoa?&lt;br&gt;S / N" style="shape=display;whiteSpace=wrap;html=1;fontSize=13;" vertex="1" parent="1">
          <mxGeometry x="515" y="830" width="120" height="70" as="geometry" />
        </mxCell>
        <mxCell id="BffiYCmTZE-S72Ja-R60-64" value="&lt;b&gt;&lt;font style=&quot;font-size: 15px;&quot;&gt;SIM&lt;/font&gt;&lt;/b&gt;" style="text;html=1;align=center;verticalAlign=middle;resizable=0;points=[];autosize=1;strokeColor=none;fillColor=none;fontSize=11;" vertex="1" parent="1">
          <mxGeometry x="5" y="583.75" width="50" height="30" as="geometry" />
        </mxCell>
        <mxCell id="BffiYCmTZE-S72Ja-R60-66" value="&lt;span style=&quot;font-size: 15px;&quot;&gt;&lt;b&gt;NÃO&lt;/b&gt;&lt;/span&gt;" style="text;html=1;align=center;verticalAlign=middle;resizable=0;points=[];autosize=1;strokeColor=none;fillColor=none;fontSize=11;" vertex="1" parent="1">
          <mxGeometry x="480" y="330" width="60" height="30" as="geometry" />
        </mxCell>
      </root>
    </mxGraphModel>
  </diagram>
</mxfile>
